# xmcd
# Track frame offsets:
# 150
# 16036
# 32026
# 48001
# 63901
# 78301
# 96540
# 113778
# 129678
#
# Disc length: 2020 seconds
# Revision: 0
# Processed by: cddbd v1.5.1PL0 Copyright (c) Steve Scherf et al.
# Submitted via: VisiTrax 2.9.10.228 - For more info visit www.synapsa.com
#
DISCID=6a07e209
DTITLE=Various Artist - Hits Monthly Nashville  PHN0203
DYEAR=1900
DGENRE=Karaoke
TTITLE0=Stenier, Tommy Shane - What If She's An Angel
TTITLE1=McGraw, Tim - Cowboy In Me, The
TTITLE2=Yearwood, Trisha - Inside Out
TTITLE3=Cochran, Tammy - I Cry
TTITLE4=Wright, Chely - Jezebel
TTITLE5=Cagle, Chris - I Breathe In, I Breathe Out
TTITLE6=Rascal Flatts - I'm Movin' On
TTITLE7=Vassar, Phil - That's When I Love You
TTITLE8=Carlisle, Bob - Christmas Shoes, The
EXTD=
EXTT0=
EXTT1=
EXTT2=
EXTT3=
EXTT4=
EXTT5=
EXTT6=
EXTT7=
EXTT8=
PLAYORDER=
